<svg xmlns:mydata="http://www.w3.org/2000/svg" mydata:contrastcolor="25142d" mydata:template="Contrast" mydata:presentation="2.5" mydata:layouttype="undefined" mydata:specialfontid="undefined" mydata:id1="289" mydata:id2="290" mydata:companyname="Ticket.br" mydata:companytagline="" version="1.1" xmlns="http://www.w3.org/2000/svg" xmlns:xlink="http://www.w3.org/1999/xlink" viewBox="0 0 550 470"><defs><linearGradient x1="70.33055" y1="235" x2="479.66945" y2="235" gradientUnits="userSpaceOnUse" id="color-184008"><stop offset="0" stop-color="#7b4397"></stop><stop offset="1" stop-color="#dc2430"></stop></linearGradient></defs><g fill="url(#color-184008)" fill-rule="none" stroke="none" stroke-width="1" stroke-linecap="butt" stroke-linejoin="miter" stroke-miterlimit="10" stroke-dasharray="" stroke-dashoffset="0" font-family="none" font-weight="none" font-size="none" text-anchor="none" style="mix-blend-mode: normal"><g data-paper-data="{&quot;isGlobalGroup&quot;:true,&quot;bounds&quot;:{&quot;x&quot;:70.33054664409997,&quot;y&quot;:115,&quot;width&quot;:409.33890671180006,&quot;height&quot;:240}}"><g data-paper-data="{&quot;isPrimaryText&quot;:true}" fill-rule="nonzero"><path d="M86.85953,315.46676c0.68161,0 1.02241,0.3408 1.02241,1.02241v35.35839c0,1.19281 0.3408,1.87442 1.78922,2.04482c1.78922,0.2556 4.68605,0.3408 7.41248,0.3408c2.72643,0 5.62326,-0.0852 7.41248,-0.3408c1.44842,-0.1704 1.78922,-0.85201 1.78922,-2.04482v-35.35839c0,-0.68161 0.3408,-1.02241 1.02241,-1.02241h14.56936c1.02241,0 1.53362,-0.3408 1.70402,-1.19281c0.1704,-1.02241 0.2556,-2.81163 0.2556,-4.68605c0,-1.87442 -0.0852,-3.57844 -0.2556,-4.60085c-0.1704,-0.85201 -0.68161,-1.19281 -1.70402,-1.19281h-49.58695c-1.02241,0 -1.53362,0.3408 -1.70402,1.19281c-0.1704,1.02241 -0.2556,2.72643 -0.2556,4.60085c0,1.87442 0.0852,3.66364 0.2556,4.68605c0.1704,0.85201 0.68161,1.19281 1.70402,1.19281z" data-paper-data="{&quot;glyphName&quot;:&quot;T&quot;,&quot;glyphIndex&quot;:0,&quot;firstGlyphOfWord&quot;:true,&quot;word&quot;:1}" fill="#ffffff"></path><path d="M143.85896,304.90184c0,-4.43045 -3.06723,-7.32728 -7.41248,-7.32728c-4.26005,0 -7.41248,2.89683 -7.41248,7.32728c0,4.17485 3.15244,7.24208 7.41248,7.24208c4.34525,0 7.41248,-3.06723 7.41248,-7.24208zM148.88582,353.97759c1.02241,0 1.44842,-0.3408 1.53362,-1.27801c0.0852,-1.10761 0.1704,-2.21522 0.1704,-4.34525c0,-2.13002 -0.0852,-3.40804 -0.1704,-4.43045c-0.0852,-0.93721 -0.51121,-1.27801 -1.53362,-1.27801h-2.21522c-0.59641,0 -0.85201,-0.2556 -0.85201,-0.85201v-23.08946c0,-2.47083 -0.76681,-2.72643 -2.81163,-2.72643h-19.17021c-1.02241,0 -1.44842,0.3408 -1.53362,1.27801c-0.0852,1.10761 -0.1704,2.21522 -0.1704,4.34525c0,2.13002 0.0852,3.40804 0.1704,4.43045c0.0852,0.93721 0.51121,1.27801 1.53362,1.27801h3.40804c0.59641,0 0.85201,0.2556 0.85201,0.85201v15.42137c0,8.09409 2.64123,10.39452 10.65012,10.39452z" data-paper-data="{&quot;glyphName&quot;:&quot;i&quot;,&quot;glyphIndex&quot;:1,&quot;word&quot;:1}" fill="#ffffff"></path><path d="M156.1279,335.06298c0,13.80255 8.9461,19.93702 25.21948,19.93702c8.9461,0 14.82496,-2.30043 16.10298,-2.81163c0.85201,-0.3408 1.27801,-0.68161 1.27801,-1.53362c0.0852,-2.13002 -0.0852,-5.70846 -0.3408,-7.83849c-0.0852,-0.85201 -0.59641,-1.10761 -1.53362,-0.85201c-1.36322,0.426 -6.30487,2.30043 -12.01333,2.30043c-6.98648,0 -10.90572,-1.78922 -10.90572,-9.2017c0,-7.41248 3.91924,-9.2017 10.90572,-9.2017c5.70846,0 10.65012,1.87442 12.01333,2.30043c0.93721,0.2556 1.44842,0 1.53362,-0.85201c0.2556,-2.13002 0.426,-5.70846 0.3408,-7.83849c0,-0.85201 -0.426,-1.19281 -1.27801,-1.53362c-1.27801,-0.51121 -7.15688,-2.81163 -16.10298,-2.81163c-16.27338,0 -25.21948,6.13447 -25.21948,19.93702z" data-paper-data="{&quot;glyphName&quot;:&quot;c&quot;,&quot;glyphIndex&quot;:2,&quot;word&quot;:1}" fill="#ffffff"></path><path d="M246.1853,335.23338c-0.426,-0.59641 -0.51121,-0.68161 -0.51121,-1.19281v-0.76681c0,-0.51121 0.0852,-0.68161 0.51121,-1.19281l10.47972,-13.63215c1.10761,-1.36322 0.59641,-2.64123 -0.76681,-2.72643c-4.77125,-0.1704 -10.30931,-0.0852 -14.22856,0.0852c-1.70402,0.0852 -2.21522,0.3408 -3.32284,1.87442l-8.26449,11.67253c-0.2556,0.3408 -0.51121,0.51121 -1.02241,0.51121h-1.87442c-0.59641,0 -0.85201,-0.2556 -0.85201,-0.85201v-26.49749c0,-2.47083 -0.76681,-2.72643 -2.81163,-2.72643h-19.17021c-1.02241,0 -1.44842,0.3408 -1.53362,1.27801c-0.0852,1.10761 -0.1704,2.21522 -0.1704,4.34525c0,2.13002 0.0852,3.40804 0.1704,4.43045c0.0852,0.93721 0.51121,1.27801 1.53362,1.27801h3.40804c0.59641,0 0.85201,0.2556 0.85201,0.85201v39.78884c0,1.19281 0.51121,1.87442 1.87442,2.04482c1.70402,0.2556 4.08965,0.426 6.98648,0.426c2.89683,0 5.28246,-0.1704 6.98648,-0.426c1.36322,-0.1704 1.87442,-0.85201 1.87442,-2.04482v-12.60974c0,-0.59641 0.2556,-0.85201 0.85201,-0.85201h2.04482c0.426,0 0.68161,0.1704 0.93721,0.51121l8.7757,13.03574c1.10761,1.53362 1.44842,1.87442 3.15244,2.04482c4.51565,0.3408 11.16132,0.426 15.93258,0.0852c1.36322,-0.0852 1.78922,-1.27801 0.68161,-2.72643z" data-paper-data="{&quot;glyphName&quot;:&quot;k&quot;,&quot;glyphIndex&quot;:3,&quot;word&quot;:1}" fill="#ffffff"></path><path d="M291.2566,345.28709c-7.58288,0 -11.50213,-1.10761 -11.50213,-5.45286c0,-0.3408 0.2556,-0.59641 0.59641,-0.59641h26.6679c1.95962,0 2.47083,-0.1704 2.81163,-2.30043c0.0852,-0.76681 0.1704,-2.72643 0.1704,-3.91924c0,-12.35414 -8.6053,-17.8922 -22.74865,-17.8922c-14.91017,0 -25.73069,4.34525 -25.73069,20.02222c0,15.59177 11.16132,19.85182 27.86071,19.85182c9.2869,0 14.05816,-1.78922 15.93258,-2.47083c0.85201,-0.3408 1.27801,-0.68161 1.27801,-1.53362c0.0852,-2.13002 0,-4.77125 -0.2556,-6.90128c-0.0852,-0.76681 -0.68161,-1.10761 -1.61882,-0.85201c-4.51565,1.27801 -9.2017,2.04482 -13.46175,2.04482zM279.49887,331.65494c0,-5.45286 1.78922,-7.75329 6.56047,-7.75329c4.77125,0 6.56047,2.30043 6.56047,7.75329c0,0.59641 -0.1704,0.85201 -0.93721,0.85201h-11.24652c-0.76681,0 -0.93721,-0.2556 -0.93721,-0.85201z" data-paper-data="{&quot;glyphName&quot;:&quot;e&quot;,&quot;glyphIndex&quot;:4,&quot;word&quot;:1}" fill="#ffffff"></path><path d="M342.29197,343.75348c-4.34525,0 -6.47527,-1.27801 -6.47527,-5.53806v-10.05371c0,-0.59641 0.2556,-0.85201 0.85201,-0.85201h8.9461c1.02241,0 1.44842,-0.3408 1.53362,-1.27801c0.0852,-1.02241 0.1704,-2.30043 0.1704,-4.43045c0,-2.13002 -0.0852,-3.23764 -0.1704,-4.34525c-0.0852,-0.93721 -0.51121,-1.27801 -1.53362,-1.27801h-8.9461c-0.59641,0 -0.85201,-0.2556 -0.85201,-0.85201v-9.0313c0,-1.19281 -0.51121,-1.87442 -1.87442,-2.04482c-1.70402,-0.2556 -4.08965,-0.426 -6.98648,-0.426c-2.89683,0 -5.28246,0.1704 -6.98648,0.426c-1.36322,0.1704 -1.87442,0.85201 -1.87442,2.04482v32.80236c0,13.12095 9.0313,16.10298 19.76662,16.10298c5.96407,0 9.62771,-1.02241 11.16132,-1.53362c0.85201,-0.2556 1.19281,-0.51121 1.27801,-1.36322c0.1704,-1.61882 0,-6.90128 -0.2556,-8.26449c-0.1704,-0.85201 -0.51121,-1.10761 -1.53362,-0.85201c-1.19281,0.2556 -3.49324,0.76681 -6.21967,0.76681z" data-paper-data="{&quot;glyphName&quot;:&quot;t&quot;,&quot;glyphIndex&quot;:5,&quot;word&quot;:1}" fill="#ffffff"></path><path d="M374.32752,346.47991c0,-5.11206 -3.57844,-8.52009 -8.6053,-8.52009c-4.94165,0 -8.6053,3.40804 -8.6053,8.52009c0,4.85645 3.66364,8.43489 8.6053,8.43489c5.02686,0 8.6053,-3.57844 8.6053,-8.43489z" data-paper-data="{&quot;glyphName&quot;:&quot;.&quot;,&quot;glyphIndex&quot;:6,&quot;word&quot;:1}" fill="#ffffff"></path><path d="M403.04024,335.06298c0,-6.13447 2.21522,-8.34969 7.07168,-8.34969c4.85645,0 7.07168,2.21522 7.07168,8.34969c0,6.13447 -2.21522,8.34969 -7.07168,8.34969c-4.85645,0 -7.07168,-2.21522 -7.07168,-8.34969zM385.82965,352.44397c0,1.19281 0.51121,1.87442 1.87442,2.04482c2.13002,0.2556 4.43045,0.3408 6.30487,0.3408c2.47083,0 5.70846,-0.0852 7.07168,-0.2556c0.85201,-0.0852 1.19281,-0.2556 1.44842,-1.10761l0.68161,-2.21522c0.1704,-0.51121 0.426,-0.59641 0.85201,-0.59641h0.76681c0.51121,0 0.59641,0 1.02241,0.426c1.61882,1.44842 4.94165,3.91924 11.41693,3.91924c11.07612,0 17.807,-7.58288 17.807,-19.93702c0,-12.35414 -6.73087,-19.93702 -17.807,-19.93702c-6.47527,0 -9.71291,2.55603 -10.90572,3.40804c-0.51121,0.426 -0.59641,0.426 -1.10761,0.426h-0.93721c-0.59641,0 -0.76681,-0.1704 -0.76681,-0.76681v-15.67697c0,-2.47083 -0.76681,-2.72643 -2.81163,-2.72643h-19.17021c-1.02241,0 -1.44842,0.3408 -1.53362,1.27801c-0.0852,1.10761 -0.1704,2.21522 -0.1704,4.34525c0,2.13002 0.0852,3.40804 0.1704,4.43045c0.0852,0.93721 0.51121,1.27801 1.53362,1.27801h3.40804c0.59641,0 0.85201,0.2556 0.85201,0.85201z" data-paper-data="{&quot;glyphName&quot;:&quot;b&quot;,&quot;glyphIndex&quot;:7,&quot;word&quot;:1}" fill="#ffffff"></path><path d="M463.44771,337.53381c0,-6.90128 3.74884,-9.0313 9.54251,-9.0313c2.04482,0 3.49324,0.0852 4.85645,0.1704c1.02241,0.0852 1.53362,-0.2556 1.61882,-1.27801c0.2556,-2.55603 0.2556,-8.00889 0.0852,-10.56492c-0.0852,-1.02241 -0.2556,-1.44842 -1.95962,-1.61882c-0.76681,-0.0852 -1.61882,-0.0852 -2.30043,-0.0852c-6.90128,0 -9.96851,3.57844 -11.16132,4.77125c-0.426,0.426 -0.51121,0.426 -1.02241,0.426h-0.59641c-0.426,0 -0.68161,-0.0852 -0.85201,-0.59641l-0.68161,-2.55603c-0.1704,-0.76681 -0.68161,-1.19281 -1.70402,-1.19281h-17.807c-1.02241,0 -1.44842,0.3408 -1.53362,1.27801c-0.0852,1.10761 -0.1704,2.21522 -0.1704,4.34525c0,2.13002 0.0852,3.40804 0.1704,4.43045c0.0852,0.93721 0.51121,1.27801 1.53362,1.27801h3.40804c0.59641,0 0.85201,0.2556 0.85201,0.85201v23.60066c0,1.19281 0.51121,1.87442 1.87442,2.04482c1.70402,0.2556 4.08965,0.426 6.98648,0.426c2.89683,0 5.28246,-0.1704 6.98648,-0.426c1.36322,-0.1704 1.87442,-0.85201 1.87442,-2.04482z" data-paper-data="{&quot;glyphName&quot;:&quot;r&quot;,&quot;glyphIndex&quot;:8,&quot;lastGlyphOfWord&quot;:true,&quot;word&quot;:1}" fill="#ffffff"></path></g><g data-paper-data="{&quot;isIcon&quot;:&quot;true&quot;,&quot;iconType&quot;:&quot;icon&quot;,&quot;rawIconId&quot;:&quot;82124&quot;,&quot;selectedEffects&quot;:{&quot;container&quot;:&quot;&quot;,&quot;transformation&quot;:&quot;&quot;,&quot;pattern&quot;:&quot;&quot;},&quot;combineTerms&quot;:&quot;Ticket&quot;,&quot;isDetailed&quot;:false,&quot;fillRule&quot;:&quot;evenodd&quot;,&quot;bounds&quot;:{&quot;x&quot;:199.36571359744403,&quot;y&quot;:115,&quot;width&quot;:151.26857280511194,&quot;height&quot;:151.27021408701694},&quot;iconStyle&quot;:&quot;standalone&quot;,&quot;suitableAsStandaloneIcon&quot;:true}" fill-rule="evenodd"><path d="M199.36571,233.64252c5.93209,-5.93227 5.93209,-14.8304 0,-20.7625l63.30638,-63.30672l2.87411,2.87243l0.9261,-0.9261l-2.87243,-2.87411l33.64557,-33.64552c5.93227,5.93209 14.8304,5.93209 20.7625,0l1.48243,1.48311c-0.8192,0.81904 -0.8192,2.14699 0,2.96605c0.81904,0.81905 2.14701,0.81905 2.96605,0l1.48412,1.48277c-0.8192,0.81904 -0.8192,2.14699 0,2.966c0.81904,0.81904 2.14684,0.81904 2.96605,0l1.48294,1.48311c-0.81904,0.81904 -0.81904,2.14701 0,2.96605c0.81904,0.81904 2.14701,0.81904 2.96605,0l1.48311,1.48294c-0.81904,0.81904 -0.81904,2.14701 0,2.96605c0.81904,0.81904 2.14684,0.81904 2.96605,0l1.48294,1.48311c-0.81904,0.81904 -0.81904,2.14701 0,2.96605c0.81904,0.81904 2.14701,0.81904 2.96605,0l1.48243,1.48412c-0.81904,0.81904 -0.81904,2.14701 0,2.96605c0.81904,0.81904 2.14701,0.81904 2.96605,0l1.48311,1.48294c-0.81904,0.81904 -0.81904,2.14701 0,2.96605c0.81904,0.81904 2.14701,0.81904 2.96605,0l1.48294,1.48311c-5.93209,5.93227 -5.93209,14.8304 0,20.7625l-33.64557,33.64725l-2.54888,-2.54888l-0.92695,0.92677l2.54905,2.54905l-63.30604,63.30604c-5.93243,-5.93227 -14.83057,-5.93227 -20.76267,0l-1.48412,-1.48429c0.8192,-0.81887 0.8192,-2.14684 0,-2.96605c-0.81904,-0.81904 -2.14684,-0.81904 -2.96605,0l-1.48294,-1.48294c0.81904,-0.81904 0.81904,-2.14701 0,-2.96605c-0.81904,-0.81904 -2.14701,-0.81904 -2.96605,0l-1.48311,-1.48311c0.8192,-0.81887 0.8192,-2.14684 0,-2.96605c-0.81904,-0.81904 -2.14684,-0.81904 -2.96605,0l-1.48294,-1.48294c0.81904,-0.81904 0.81904,-2.14701 0,-2.96605c-0.81904,-0.81904 -2.14701,-0.81904 -2.96605,0l-1.48311,-1.48311c0.8192,-0.81904 0.8192,-2.14684 0,-2.96588c-0.81904,-0.8192 -2.14684,-0.8192 -2.96605,0l-1.48294,-1.48311c0.81904,-0.81904 0.81904,-2.14701 0,-2.96605c-0.81904,-0.81904 -2.14699,-0.81904 -2.96605,0l-1.48302,-1.48311c0.81905,-0.81904 0.81905,-2.14684 0,-2.96588c-0.81904,-0.8192 -2.14699,-0.8192 -2.96605,0zM268.37376,153.4204l-0.92695,0.92695l3.8466,3.8466l0.92695,-0.92695zM274.16685,159.21349l-0.92695,0.92695l3.80021,3.80021l0.92695,-0.92695zM279.91356,164.96021l-0.92695,0.92695l3.8466,3.8466l0.92695,-0.92695zM285.66026,170.70691l-0.92695,0.92695l3.8466,3.8466l0.92695,-0.92695zM291.40697,176.45362l-0.92695,0.92695l3.8466,3.8466l0.92695,-0.92695zM297.15368,182.20032l-0.92695,0.92695l3.8466,3.8466l0.92695,-0.92695zM302.90039,187.94703l-0.92695,0.92695l3.8466,3.8466l0.92695,-0.92695zM308.64709,193.69374l-0.92695,0.92695l3.8466,3.8466l0.92695,-0.92695z" data-paper-data="{&quot;isPathIcon&quot;:true}"></path></g></g></g></svg>